<?xml version="1.0" standalone="no"?>
<!DOCTYPE svg PUBLIC "-//W3C//DTD SVG 20010904//EN"
 "http://www.w3.org/TR/2001/REC-SVG-20010904/DTD/svg10.dtd">
<svg version="1.0" xmlns="http://www.w3.org/2000/svg"
 width="69.000000pt" height="59.000000pt" viewBox="0 0 69.000000 59.000000"
 preserveAspectRatio="xMidYMid meet">

<g transform="translate(0.000000,59.000000) scale(0.100000,-0.100000)"
fill="#000000" stroke="none">
<path d="M305 527 c-27 -27 -34 -43 -40 -94 -4 -34 -4 -91 0 -126 6 -56 12
-70 41 -98 l34 -33 0 146 c0 85 5 159 11 175 l11 28 10 -28 c8 -23 15 -28 37
-25 36 4 42 49 9 72 -37 26 -76 20 -113 -17z"/>
<path d="M95 538 c-40 -22 -47 -61 -16 -78 23 -12 56 13 47 36 -3 8 -2 14 3
14 9 0 21 -34 21 -62 0 -14 -8 -18 -33 -18 -45 0 -77 -25 -77 -59 0 -48 58
-78 100 -51 12 8 11 12 -8 30 -12 11 -22 25 -22 30 0 19 22 10 64 -25 24 -19
47 -35 51 -35 12 0 -6 152 -21 181 -7 15 -28 32 -45 38 -39 13 -39 13 -64 -1z"/>
<path d="M380 281 c0 -165 6 -191 56 -230 34 -27 88 -27 114 -1 24 24 25 43 5
60 -23 19 -55 3 -55 -28 0 -25 -1 -25 -17 -9 -14 14 -19 39 -22 108 -3 83 -1
93 20 115 22 24 22 24 2 24 -13 0 -23 8 -27 23 -3 12 -21 38 -41 57 l-35 34 0
-153z"/>
</g>
</svg>
